<svg width="256" height="256" viewBox="0 0 256 256" fill="none" xmlns="http://www.w3.org/2000/svg">
<rect width="256" height="256" fill="white"/>
<g clip-path="url(#clip0_1_6)">
<mask id="mask0_1_6" style="mask-type:luminance" maskUnits="userSpaceOnUse" x="36" y="36" width="185" height="185">
<path d="M174 48.3832C217.994 73.7752 233.064 130.024 207.672 174C182.28 217.994 126.031 233.064 82.0552 207.672C38.0608 182.28 22.9912 126.031 48.3832 82.0368C73.7752 38.0608 130.024 22.9912 174 48.3832Z" fill="white"/>
</mask>
<g mask="url(#mask0_1_6)">
<path d="M233.064 22.9912H22.9912V233.064H233.064V22.9912Z" fill="url(#paint0_linear_1_6)"/>
</g>
<path fill-rule="evenodd" clip-rule="evenodd" d="M159.574 41.6304C174.202 58.264 184.672 80.0496 211.223 88.8448C203.514 72.432 190.891 58.1352 174 48.3832C169.326 45.6784 164.487 43.4336 159.574 41.6304Z" fill="#FBE571"/>
<path fill-rule="evenodd" clip-rule="evenodd" d="M211.223 88.8448C184.69 80.068 174.202 58.264 159.574 41.6304C145.977 36.644 131.68 35.0616 117.843 36.6256C160.384 49.7264 161.396 104.356 218.694 112.636C217.295 104.411 214.793 96.4072 211.223 88.8448Z" fill="#FFCB56"/>
<path fill-rule="evenodd" clip-rule="evenodd" d="M218.694 112.636C161.396 104.356 160.384 49.7264 117.843 36.6256C106.086 37.932 94.6408 41.52 84.208 47.1504C152.049 49.6712 142.702 127.706 219.798 134.201C220.276 126.97 219.89 119.72 218.694 112.636Z" fill="#F4884D"/>
<path fill-rule="evenodd" clip-rule="evenodd" d="M219.798 134.201C142.702 127.706 152.049 49.6896 84.208 47.1504C77.5656 50.7384 71.328 55.1728 65.6608 60.3984C141.837 61.7048 130.429 148.553 215.897 155.177C218.05 148.277 219.338 141.23 219.798 134.201Z" fill="#ED5B3A"/>
<path fill-rule="evenodd" clip-rule="evenodd" d="M215.915 155.177C130.429 148.553 141.855 61.7047 65.6792 60.3983C61.3184 64.4279 57.2888 68.9359 53.7008 73.8855C129.49 78.6879 121.063 165.996 206.715 175.638C207.046 175.104 207.359 174.552 207.69 174C211.186 167.928 213.91 161.598 215.915 155.177Z" fill="#D34360"/>
<path fill-rule="evenodd" clip-rule="evenodd" d="M206.697 175.637C121.045 165.996 129.472 78.6695 53.6824 73.8855C51.7872 76.4799 50.0208 79.2031 48.3832 82.0367C47.2424 84.0055 46.1936 85.9927 45.2184 87.9983C115.23 98.1183 113.078 179.391 191.186 194.884C197.074 189.327 202.318 182.905 206.697 175.637Z" fill="#B0337D"/>
<path fill-rule="evenodd" clip-rule="evenodd" d="M191.186 194.902C113.078 179.41 115.23 98.1184 45.2184 87.9984C42.7896 93.0032 40.8576 98.1552 39.404 103.362C99.1304 118.837 105.202 187.726 168.075 210.8C176.447 206.77 184.267 201.434 191.186 194.902Z" fill="#88278A"/>
<path fill-rule="evenodd" clip-rule="evenodd" d="M168.075 210.818C105.202 187.745 99.1304 118.837 39.404 103.381C37.7848 109.177 36.7728 115.046 36.3128 120.934C81.632 139.923 95.2112 190.983 137.936 219.448C148.387 218.307 158.599 215.382 168.075 210.818Z" fill="#5D1E86"/>
<path fill-rule="evenodd" clip-rule="evenodd" d="M137.936 219.448C95.2112 190.983 81.632 139.923 36.3128 120.934C35.7424 128.313 36.0736 135.71 37.2696 142.922C64.7592 161.12 80.5648 191.498 103.933 216.798C115.157 219.853 126.694 220.681 137.936 219.448Z" fill="#310F6A"/>
<path fill-rule="evenodd" clip-rule="evenodd" d="M103.933 216.798C80.5832 191.498 64.7776 161.12 37.2696 142.922C41.5936 169.161 57.2152 193.338 82.0368 207.672C89.084 211.738 96.444 214.756 103.933 216.798Z" fill="#16043F"/>
</g>
<defs>
<linearGradient id="paint0_linear_1_6" x1="75.1529" y1="179.547" x2="198.358" y2="59.4786" gradientUnits="userSpaceOnUse">
<stop stop-color="#032066"/>
<stop offset="1" stop-color="#F7B105"/>
</linearGradient>
<clipPath id="clip0_1_6">
<rect width="184" height="184" fill="white" transform="translate(36 36)"/>
</clipPath>
</defs>
</svg>
